<?xml version="1.0" encoding="UTF-8"?>
<svg xmlns="http://www.w3.org/2000/svg" xmlns:xlink="http://www.w3.org/1999/xlink" viewBox="0 0 96 96" width="96px" height="96px">
<g id="surface60966725">
<path style="fill-rule:nonzero;fill:rgb(90.196079%,31.764707%,0%);fill-opacity:1;stroke-width:10;stroke-linecap:butt;stroke-linejoin:round;stroke:rgb(80.000001%,80.000001%,80.000001%);stroke-opacity:1;stroke-miterlimit:10;" d="M 146.915423 17.915003 L 136.164769 139.753273 L 86.000003 154.085002 L 35.835236 139.753273 L 25.084582 17.915003 Z M 146.915423 17.915003 " transform="matrix(0.525767,0,0,0.525767,2.784,2.784)"/>
<path style="fill-rule:nonzero;fill:rgb(100%,42.745098%,0%);fill-opacity:1;stroke-width:10;stroke-linecap:butt;stroke-linejoin:round;stroke:rgb(80.000001%,80.000001%,80.000001%);stroke-opacity:1;stroke-miterlimit:10;" d="M 135.094904 28.665657 L 126.134787 131.5064 L 86.000003 142.977727 L 86.000003 28.665657 Z M 135.094904 28.665657 " transform="matrix(0.525767,0,0,0.525767,2.784,2.784)"/>
<path style="fill-rule:nonzero;fill:rgb(100%,100%,100%);fill-opacity:1;stroke-width:10;stroke-linecap:butt;stroke-linejoin:round;stroke:rgb(80.000001%,80.000001%,80.000001%);stroke-opacity:1;stroke-miterlimit:10;" d="M 86.000003 89.581077 L 86.000003 75.249349 L 116.818049 75.249349 L 114.306839 116.461428 L 86.000003 125.778166 L 86.000003 110.725764 L 100.688353 105.710773 L 101.765647 89.581077 Z M 86.000003 60.91762 L 86.000003 46.585891 L 118.965208 46.585891 L 117.895343 60.91762 Z M 86.000003 60.91762 " transform="matrix(0.525767,0,0,0.525767,2.784,2.784)"/>
<path style="fill-rule:nonzero;fill:rgb(93.333334%,93.333334%,93.333334%);fill-opacity:1;stroke-width:10;stroke-linecap:butt;stroke-linejoin:round;stroke:rgb(80.000001%,80.000001%,80.000001%);stroke-opacity:1;stroke-miterlimit:10;" d="M 86.000003 110.725764 L 86.000003 125.778166 L 57.693166 116.461428 L 56.25925 96.750657 L 70.590979 96.750657 L 71.311652 105.710773 Z M 69.513685 75.249349 L 86.000003 75.249349 L 86.000003 89.581077 L 55.902629 89.581077 L 53.391419 46.585891 L 86.000003 46.585891 L 86.000003 60.91762 L 68.44382 60.91762 Z M 69.513685 75.249349 " transform="matrix(0.525767,0,0,0.525767,2.784,2.784)"/>
<path style=" stroke:none;fill-rule:nonzero;fill:rgb(90.196079%,31.764707%,0%);fill-opacity:1;" d="M 80.027344 12.203125 L 15.972656 12.203125 L 21.625 76.261719 L 48 83.796875 L 74.375 76.261719 Z M 80.027344 12.203125 "/>
<path style=" stroke:none;fill-rule:nonzero;fill:rgb(100%,42.745098%,0%);fill-opacity:1;" d="M 48 17.855469 L 48 77.957031 L 69.101562 71.925781 L 73.8125 17.855469 Z M 48 17.855469 "/>
<path style=" stroke:none;fill-rule:nonzero;fill:rgb(100%,100%,100%);fill-opacity:1;" d="M 48 49.882812 L 48 42.347656 L 64.203125 42.347656 L 62.882812 64.015625 L 48 68.914062 L 48 61 L 55.722656 58.363281 L 56.289062 49.882812 Z M 64.769531 34.8125 L 65.332031 27.277344 L 48 27.277344 L 48 34.8125 Z M 64.769531 34.8125 "/>
<path style=" stroke:none;fill-rule:nonzero;fill:rgb(93.333334%,93.333334%,93.333334%);fill-opacity:1;" d="M 48 61 L 48 68.914062 L 33.117188 64.015625 L 32.363281 53.652344 L 39.898438 53.652344 L 40.277344 58.363281 Z M 38.769531 34.8125 L 48 34.8125 L 48 27.277344 L 30.855469 27.277344 L 32.175781 49.882812 L 48 49.882812 L 48 42.347656 L 39.332031 42.347656 Z M 38.769531 34.8125 "/>
</g>
</svg>
